<svg width="146" height="106" viewBox="0 0 146 106" fill="none" xmlns="http://www.w3.org/2000/svg">
<g clip-path="url(#clip0)">
<path d="M7.66361 91.0704C21.1927 95.0164 98.5993 115.086 139.647 70.5007C139.669 70.4753 139.685 70.4447 139.693 70.4116C139.701 70.3785 139.701 70.3439 139.693 70.3109L124.122 6.64613C124.113 6.6082 124.094 6.5734 124.067 6.54572C124.04 6.51803 124.005 6.49858 123.967 6.48958C123.93 6.48058 123.89 6.4824 123.853 6.49482C123.816 6.50725 123.784 6.52978 123.759 6.55985L90.4543 46.9687C90.4345 46.9949 90.4088 47.0162 90.3794 47.0308C90.3499 47.0454 90.3175 47.0531 90.2846 47.0531C90.2517 47.0531 90.2193 47.0454 90.1899 47.0308C90.1604 47.0162 90.1348 46.9949 90.1149 46.9687L68.2683 12.1222C68.2496 12.0925 68.2238 12.068 68.1931 12.051C68.1624 12.034 68.1279 12.0251 68.0928 12.0251C68.0578 12.0251 68.0233 12.034 67.9926 12.051C67.9619 12.068 67.936 12.0925 67.9174 12.1222L45.4035 50.9319C45.3878 50.959 45.3661 50.9822 45.3402 50.9997C45.3142 51.0173 45.2846 51.0287 45.2536 51.0331C45.2226 51.0375 45.191 51.0349 45.1611 51.0253C45.1313 51.0158 45.104 50.9996 45.0813 50.9779L6.44991 14.262C6.42063 14.2337 6.38368 14.2147 6.34366 14.2073C6.30364 14.2 6.26234 14.2045 6.22491 14.2205C6.18748 14.2364 6.15558 14.2631 6.13319 14.297C6.1108 14.331 6.09892 14.3708 6.09903 14.4115L5.66186 88.3497C5.65309 88.9594 5.84396 89.5553 6.20535 90.0465C6.56675 90.5378 7.07886 90.8973 7.66361 91.0704Z" fill="#E1B63A"/>
<path d="M86.8707 37.8573L87.0663 37.5352C86.9793 37.6277 86.9127 37.7374 86.8707 37.8573Z" fill="#121212"/>
<path d="M68.2395 23.8163L67.9864 24.0809C68.0631 23.9857 68.1477 23.8972 68.2395 23.8163Z" fill="#121212"/>
<path d="M64.5984 27.446L64.4948 27.5668C64.5754 27.5898 64.6329 27.6531 64.5984 27.446Z" fill="#121212"/>
<path d="M109.563 31.6105C109.502 31.7419 109.429 31.8672 109.344 31.9844C109.448 31.8808 109.524 31.752 109.563 31.6105Z" fill="#121212"/>
<path d="M97.2476 89.3735L97.3454 89.3333H97.0693L97.2476 89.3735Z" fill="#121212"/>
<path d="M97.8573 89.04C97.7949 89.0255 97.7299 89.0255 97.6675 89.04C97.7301 89.0528 97.7947 89.0528 97.8573 89.04Z" fill="#121212"/>
<path d="M97.8573 89.0399C97.9493 89.0974 97.5237 89.27 97.3454 89.3332C97.9533 89.3731 98.5614 89.2562 99.1113 88.9939C99.0653 88.8213 98.2715 89.0341 97.8573 89.0399Z" fill="#121212"/>
<path d="M99.5887 27.2561L99.79 26.9282C99.6983 27.0203 99.6293 27.1326 99.5887 27.2561Z" fill="#121212"/>
<path d="M28.866 93.0607L29.0616 92.7443C29.0063 92.7778 28.9597 92.8239 28.9257 92.8789C28.8917 92.9339 28.8712 92.9962 28.866 93.0607Z" fill="#121212"/>
<path d="M53.1459 49.2408C53.1 49.2157 53.0486 49.2025 52.9963 49.2025C52.944 49.2025 52.8926 49.2157 52.8467 49.2408L52.795 49.3386L53.1459 49.2408Z" fill="#121212"/>
<path d="M8.56668 74.3145L8.30783 73.8543C8.323 74.0342 8.36568 74.2108 8.43438 74.3777C8.48207 74.3652 8.52696 74.3437 8.56668 74.3145Z" fill="#121212"/>
<path d="M25.1501 37.7767C25.1041 37.7767 25.0236 37.7767 24.9891 37.7767C25.8419 38.7299 26.7628 39.62 27.7444 40.44L28.1125 40.2041L25.1501 37.7767Z" fill="#121212"/>
<path d="M0.842201 15.7576L0.997509 15.6368L1.29662 15.3952C1.68777 15.0673 2.06166 14.7394 2.40679 14.4058C2.13643 14.9983 1.87184 15.6253 1.636 16.2062C1.58998 16.3788 1.46919 16.419 1.48069 16.7067V17.4602L1.42892 18.927C1.39441 19.8876 1.35414 20.8137 1.31963 21.7168C1.28512 22.6199 1.41742 23.707 1.45193 24.6561C1.54396 26.5888 1.63025 28.4295 1.71653 30.2127C1.75679 31.5184 1.79706 32.7782 1.84307 34.0206C1.94086 37.8228 2.06741 41.4294 2.60811 46.1001L2.40103 45.5939C2.21121 46.9342 4.16119 47.6245 2.44705 62.7411H2.36077C2.48151 63.2537 2.48151 63.7873 2.36077 64.2999L2.78643 61.677C3.18267 63.3109 3.4709 64.9692 3.64925 66.6411C3.56872 67.084 3.40191 67.2163 3.26961 67.2911L3.59748 72.3702L3.1143 73.9463C3.46518 75.4879 4.58685 74.7401 4.09217 78.9219C4.83419 77.3228 4.66738 80.9639 5.02977 80.4405C4.93773 80.6533 4.80543 81.1365 4.67888 81.5219C4.86871 83.9895 5.23684 88.6258 5.6625 89.7762C5.6625 89.7762 7.04302 80.0493 7.7908 77.4148C7.69876 80.9064 7.9231 78.3294 8.16469 77.6334L7.96336 77.4091C8.08991 75.3153 8.59035 75.298 8.69389 74.2454C8.64234 74.2551 8.59453 74.279 8.55583 74.3144L8.62486 74.441C8.54433 74.5445 8.48106 74.487 8.42353 74.3777C8.32 74.4065 8.22796 74.3144 8.23946 73.745L8.29699 73.8543C8.21882 72.8439 8.19578 71.83 8.22796 70.8171L8.64787 70.7884C7.7908 69.2698 9.47618 60.3367 9.4129 58.2544C9.86157 56.1491 9.09654 53.5837 9.25184 50.9665C9.21158 46.8077 9.77529 48.8612 10.0514 46.7616C10.2009 44.1444 9.57972 47.3369 9.51069 46.2669L9.95936 43.1148C10.0859 44.9325 10.2987 43.9316 10.4483 43.5922C10.3965 40.8944 10.9775 36.5976 10.0974 35.8095C10.1934 34.2652 10.3856 32.7283 10.6726 31.2078C10.5959 31.3529 10.5286 31.5027 10.4713 31.6565C10.4023 31.7543 10.3448 32.1454 10.2585 32.1224C10.3275 31.691 10.3678 31.6795 10.3735 31.5932C10.3793 31.5069 10.3735 31.5184 10.3102 31.5414C10.2566 31.5796 10.2115 31.6286 10.1779 31.6852C10.1535 31.7216 10.1323 31.7601 10.1147 31.8003C10.0971 31.876 10.0856 31.9529 10.0802 32.0304C9.85582 31.2136 10.1664 29.7295 10.4253 28.7344C10.6841 27.7393 10.897 27.2964 10.385 26.3703L10.5691 26.6579C9.7983 25.1911 9.10804 24.5813 8.61911 22.8327C8.71027 22.7901 8.80716 22.761 8.90671 22.7464C8.80926 22.5269 8.78293 22.2825 8.83141 22.0473C8.8799 21.8121 9.00076 21.598 9.17707 21.4349C9.47366 21.648 9.70317 21.9413 9.83856 22.2805C9.91334 22.4646 9.91334 22.5566 9.95361 22.6429C10.6887 23.1095 11.3547 23.6768 11.9323 24.3283L14.1412 26.6291C13.6139 25.1591 12.9695 23.7337 12.2142 22.3668L15.0615 25.9389C15.8956 26.957 16.5168 27.607 16.8562 27.5092C17.0387 27.9977 17.252 28.4742 17.4947 28.9357C20.5548 33.3189 20.5433 30.9892 21.8433 32.6516L23.3274 34.9122L21.4004 33.1866C23.126 35.1883 23.7012 36.0626 24.9667 37.7883H24.9955C24.9092 37.6732 24.8632 37.587 24.8747 37.5467L25.1565 37.7768C25.6167 37.7365 26.7844 38.4728 28.1304 39.721C29.9998 41.5387 31.852 42.5281 34.4578 45.8585L35.6945 46.0311L37.7825 48.4815L37.4144 48.9014C35.056 46.7214 30.7189 43.0918 27.7565 40.4515L27.5207 40.5953C29.2463 42.1599 31.3861 43.7533 32.4905 44.8289C32.9737 45.4041 34.0148 47.1298 32.7264 46.4798L34.1587 47.055L37.2993 49.8103L40.7219 52.9222C42.7754 54.8089 44.5528 56.5173 47.4921 59.3819L50.6328 53.9346L49.908 54.6881C51.0585 52.0479 52.1514 49.6147 52.8474 49.2466L54.3314 46.4683L55.246 44.8404C55.8212 43.7935 56.4597 42.7696 57.0637 41.8033C58.0941 40.1003 59.2355 38.467 60.4805 36.914L60.2101 35.9994C60.7163 35.0963 62.3039 34.1759 61.7172 33.3131L62.465 31.2193C63.1552 29.9941 63.2128 29.0508 64.2827 27.768L64.4897 27.538C64.4709 27.5325 64.451 27.5325 64.4322 27.538C66.1579 24.8344 63.8973 27.2964 65.899 24.2247C66.3707 23.8221 66.3822 23.3389 66.1694 23.2123C66.0026 22.988 65.853 22.6371 66.0601 22.4128C66.3796 22.4524 66.6832 22.5754 66.9402 22.7694C67.2565 22.7694 67.2508 22.5336 67.3083 22.0504C67.3338 21.7701 67.3761 21.4916 67.4348 21.2163C67.463 21.0523 67.5154 20.8934 67.5901 20.7447C67.611 20.7138 67.6401 20.6893 67.6741 20.674C67.7081 20.6587 67.7457 20.6531 67.7826 20.6578C67.8196 20.6626 67.8545 20.6776 67.8835 20.701C67.9125 20.7245 67.9344 20.7555 67.9468 20.7907C68.0946 21.3532 68.1452 21.9368 68.0963 22.5163C68.0618 22.9477 67.9813 23.3446 67.9123 23.7588C67.9415 23.5897 67.9878 23.4239 68.0503 23.2641C68.0963 23.1721 68.1136 23.1606 68.2459 23.103C68.2459 23.103 68.2862 23.0685 68.3207 23.057C68.2226 23.3434 68.0994 23.6206 67.9525 23.8853C67.7685 24.3858 68.1481 23.592 68.2286 23.7588C68.7061 23.2584 69.6322 22.7349 69.7875 22.9132L69.8277 22.5738C69.9132 22.6248 69.9958 22.6805 70.0751 22.7407C70.1476 22.8006 70.2115 22.8703 70.2649 22.9477L70.5007 23.2411C70.8114 23.638 71.1162 24.0464 71.4096 24.4836C72.0169 25.3911 72.5369 26.3541 72.9626 27.3596L72.629 27.4632L74.0153 29.4016L73.7277 29.7525L75.6144 32.5768L75.4706 32.1167C76.436 33.4415 77.2865 34.8463 78.013 36.3157L77.783 36.3963C78.5564 38.2686 79.5737 40.0305 80.8086 41.6365L81.2573 42.252L81.9878 43.3046C82.4767 44.0179 82.9771 44.7369 83.4833 45.4789C84.49 46.9515 85.5081 48.47 86.5722 50.1669C86.3249 50.0749 86.0661 49.9598 85.8015 49.839C87.1129 52.9164 86.509 49.5629 88.1023 52.6806L88.039 53.7217C88.7467 54.278 89.2994 55.0069 89.6439 55.8385C90.2709 55.3036 90.7656 55.3093 91.5709 54.5903C91.3423 54.4594 91.1266 54.3072 90.9266 54.1359L93.3828 51.3749C96.1553 48.3665 95.4536 50.397 95.1084 51.4784L96.8858 48.3607C97.1274 48.4298 97.3748 48.4873 97.6279 48.539C97.9307 47.6655 98.4375 46.8767 99.1062 46.2382C99.388 45.9563 99.7159 45.663 100.119 45.1568C100.314 44.9267 100.55 44.6333 100.774 44.3342C100.912 44.1312 101.037 43.9199 101.148 43.7015C101.47 43.7015 101.234 44.2767 101.792 43.7418L103.322 40.2905L102.299 42.2865L101.66 41.4582C102.5 39.2033 103.691 39.1573 104.502 37.6847L104.024 38.7316C105.508 36.5113 105.934 36.6724 107.056 35.6485C106.613 35.8901 105.951 36.2697 106.526 35.3494C106.981 34.6994 107.102 35.2401 107.625 34.7339C107.217 34.1587 108.143 32.433 109.477 31.3229C109.514 31.3605 109.54 31.4062 109.555 31.4562C109.57 31.5062 109.573 31.5591 109.564 31.6105C109.693 31.14 109.969 30.7231 110.352 30.4198L110.651 31.2423L111.025 29.649C111.807 29.0105 112.29 27.5552 112.601 27.9694L112.365 28.5043L117.254 22.8212L117.783 23.1203C117.611 22.0274 120.59 20.1579 119.636 19.7035C119.824 19.5882 119.997 19.4511 120.153 19.2951L120.527 18.9155C120.605 18.8126 120.676 18.705 120.74 18.5934C120.89 18.3748 121.016 18.2942 121.212 18.973C121.458 18.5434 121.651 18.0857 121.787 17.6097C121.854 17.4425 121.931 17.2793 122.017 17.1208C122.086 16.9655 122.19 16.7814 122.333 16.8217C122.477 16.862 122.483 17.3969 122.483 17.8628C122.305 18.4381 122.201 18.8234 122.144 19.065C122.08 19.8646 121.925 18.5704 122.719 22.5163C124.755 29.7238 126.17 34.36 128.155 41.7458C127.815 46.5315 131.117 52.8359 131.439 57.8518L132.267 59.054C132.204 60.7796 132.704 62.7699 133.245 64.9499C133.516 66.0371 133.82 67.1645 134.016 68.3149C134.035 68.3826 134.046 68.452 134.05 68.522V68.6256C134.056 68.6906 134.056 68.7561 134.05 68.8211C134.01 68.9419 133.999 69.0627 133.849 69.126C133.891 69.1929 133.919 69.2678 133.931 69.346C133.943 69.4242 133.939 69.504 133.918 69.5804C133.97 69.5804 134.108 69.5459 134.453 69.6724C134.339 69.7281 134.235 69.8041 134.148 69.8968L133.671 70.357C133.153 70.8401 132.71 71.168 132.52 70.8689L132.67 70.61C132.457 70.2994 131.98 71.0069 131.272 71.7605C130.565 72.514 129.708 73.4861 129 73.6414C129.351 73.6932 129.685 73.722 130.024 73.745C129.449 74.2166 128.787 74.6135 128.183 75.0507L128.574 74.5675C125.192 78.2201 121.793 79.9573 118.485 81.3953C115.178 82.8334 111.824 84.0816 107.435 86.3709C108.396 85.1802 105.756 87.4178 105.336 86.5895C102.667 86.3019 101.05 88.1599 99.1464 88.9882C99.1464 89.0284 99.1464 89.0859 99.0544 89.1837C97.904 89.4771 96.7248 89.6957 95.5628 89.9545C97.3748 88.3554 93.262 91.4673 94.9876 90.0753C90.3571 90.7311 85.0882 91.7377 79.5776 92.543C74.0568 93.4014 68.4829 93.8743 62.8964 93.958L63.3796 94.2226C60.6358 94.3146 57.2133 94.6885 55.1252 94.2226C53.0372 93.7567 50.5235 94.9071 49.7355 94.9014C47.4346 95.3155 45.3811 94.2284 46.3647 94.3262C43.9258 94.3262 41.5329 95.2005 38.1852 94.4067C37.6502 93.9005 35.3378 93.8315 33.1405 93.7912C30.9432 93.7509 28.8839 93.5611 28.9242 93.0377L28.8724 93.1182C24.7539 91.6341 20.457 92.1058 16.1602 90.1616C16.2481 90.1224 16.341 90.0953 16.4363 90.0811C13.0791 90.2895 9.71334 90.3222 6.35276 90.1789C6.78609 91.6054 7.25201 93.0434 7.75053 94.493C10.1722 96.3854 12.7146 98.1686 15.3376 99.854C23.0901 101.644 30.979 102.781 38.9214 103.253C45.1607 104.201 51.4446 104.827 57.7482 105.129C73.0834 104.784 88.3899 102.828 103.294 98.5482C104.283 97.973 105.278 97.4553 106.25 96.8226C110.818 96.1899 115.776 94.3147 120.631 91.962C125.462 89.5333 130.164 86.8549 134.718 83.9378L134.465 83.2533C136.765 81.4471 136.852 81.8382 137.49 81.4471L139.314 79.7847C139.889 79.2095 140.464 78.571 141.039 77.9613L141.919 77.0122C142.125 76.788 142.317 76.5518 142.495 76.3047L143.122 75.4994L145.618 72.2724L145.934 71.8698C146.049 71.7375 145.9 71.5476 145.894 71.3866L145.67 70.3915L145.221 68.3955L144.462 65.157L143.444 60.8889L139.342 43.9603C138.014 38.3405 136.719 32.7839 135.506 27.3194C134.915 24.589 134.34 21.8855 133.78 19.2088C132.852 14.8679 131.945 10.5883 131.059 6.37004C130.676 4.64712 129.791 3.07612 128.517 1.85461C128.322 1.59976 128.108 1.35945 127.878 1.13559C127.612 0.909766 127.33 0.704039 127.033 0.520108C126.479 0.246387 125.877 0.0841675 125.261 0.0426801C124.844 0.0404375 124.427 0.0654165 124.013 0.117458C122.95 0.246388 121.92 0.572141 120.976 1.07807C120.047 1.60086 119.2 2.25793 118.462 3.02805C116.294 6.03067 114.188 8.87798 112.095 11.6563L110.352 14.0434L108.626 16.2695C106.377 19.2146 104.024 22.0849 101.723 24.869L101.838 24.6044L99.7964 27.3366C99.6584 27.4114 99.5836 27.3711 99.6124 27.2561C98.3757 29.2311 96.9563 31.0857 95.373 32.7954L92.75 35.6715L92.0943 36.3733L91.7722 36.7241L91.6169 36.8909L91.4155 36.9715L91.3868 36.8852C91.2257 37.0635 91.0819 37.2476 90.9266 37.4604C90.7713 37.2303 90.6045 37.006 90.4032 36.7414L85.4736 28.93C83.817 26.3223 82.1699 23.7243 80.5325 21.1358L73.3423 9.63151C72.7518 8.6938 71.9673 7.89353 71.0414 7.28464C70.3871 6.84291 69.6798 6.48538 68.9361 6.22049C68.6198 6.13421 68.3609 6.01916 68.0043 5.95014C67.5187 5.87769 67.0241 5.89132 66.5432 5.9904C66.2169 6.07574 65.8991 6.19128 65.5942 6.33553C65.295 6.47358 64.9614 6.65765 64.645 6.82446C63.8599 7.29209 63.1485 7.87364 62.534 8.55011C61.7539 9.54048 61.1008 10.6245 60.5898 11.7771L56.9429 18.8119C54.2221 24.0291 51.4209 29.2521 48.4815 34.5038C47.7797 35.6159 47.0933 36.7548 46.4222 37.9206L45.4214 39.6922C45.1223 40.2387 44.8174 40.7852 44.5183 41.3374C44.3943 41.4846 44.3092 41.6606 44.2709 41.8493C44.1789 41.8033 44.0639 41.7573 43.92 41.6767L43.805 41.6135L43.7475 41.579L43.224 41.1188L40.8542 39.0192C37.6905 36.1949 34.5268 33.2671 31.5759 30.2127C30.2211 28.6585 28.7625 27.1979 27.2101 25.8411L23.3101 22.2862L15.1593 14.9638L12.939 12.985C12.2897 12.3483 11.5676 11.7903 10.7877 11.3226C9.76466 10.7289 8.60543 10.4098 7.42266 10.3965C7.02294 10.3725 6.62179 10.3918 6.22621 10.4541C5.90682 10.4866 5.59105 10.5482 5.28286 10.6381C4.91762 10.7125 4.56102 10.8243 4.21871 10.9718C3.77855 11.1562 3.36465 11.398 2.98775 11.6908L1.90635 12.7837L1.01477 14.3885L0.663884 15.05L0.520081 15.3376C0.508341 15.4985 0.508341 15.66 0.520081 15.8208C0.520081 16.4593 0.520081 16.931 0.520081 17.2243L0.767423 16.0337C0.786726 15.9402 0.811698 15.848 0.842201 15.7576Z" fill="#121212"/>
<path d="M67.9174 23.8048C67.9174 23.9141 67.8713 24.0406 67.8483 24.196C67.8656 24.0637 67.8944 23.9371 67.9174 23.8048Z" fill="#121212"/>
<path d="M3.28045 67.2911V67.176C2.98134 67.1933 3.09638 67.3428 3.28045 67.2911Z" fill="#121212"/>
<path d="M14.221 26.7557L14.1348 26.6694C14.2268 26.934 14.3131 27.1929 14.3821 27.446L14.221 26.7557Z" fill="#121212"/>
<path d="M10.4591 43.5922C10.4517 44.124 10.5058 44.6548 10.6202 45.1741C10.6375 43.4197 10.5627 43.3449 10.4591 43.5922Z" fill="#121212"/>
<path d="M4.34462 81.5046C4.34462 82.4192 4.51718 82.0798 4.68975 81.5046C4.63223 80.5728 4.58621 79.9228 4.58621 79.9228C4.51143 80.4577 4.39639 80.9754 4.34462 81.5046Z" fill="#121212"/>
<path d="M8.18129 77.6334L8.42863 77.9095C8.35385 77.3746 8.26757 77.3976 8.18129 77.6334Z" fill="#121212"/>
</g>
<defs>
<clipPath id="clip0">
<rect width="145.455" height="105.109" fill="white" transform="translate(0.484924 0.0426636)"/>
</clipPath>
</defs>
</svg>
