<svg xmlns="http://www.w3.org/2000/svg" viewBox="0 0 800.68 547.85"><defs><style>.cls-1{fill:#3758a4;}.cls-2{fill:#51bfd0;}.cls-3{fill:#eaeaea;}</style></defs><title>Sticker_17</title><g id="Layer_2"><g id="Layer_20"><path class="cls-1" d="M711.08,531.85a16.24,16.24,0,0,1-2.94-.27l-307.8-57.37L92.53,531.58A16,16,0,0,1,75,509.38L153,333H32a16,16,0,0,1-9.79-28.66l368.34-285a16,16,0,0,1,19.58,0l368.34,285A16,16,0,0,1,768.68,333H647.73l78,176.41a16,16,0,0,1-14.63,22.47Z"/><path class="cls-1" d="M400.34,32,768.68,317H623.16l87.92,198.88L400.34,457.94,89.6,515.85,177.52,317H32L400.34,32m0-32a31.93,31.93,0,0,0-19.58,6.69l-368.34,285A32,32,0,0,0,32,349h96.38l-68,153.94a32,32,0,0,0,35.13,44.4l304.88-56.82,304.87,56.82a32.46,32.46,0,0,0,5.87.54,32,32,0,0,0,29.26-44.94L672.29,349h96.39a32,32,0,0,0,19.58-57.31L419.92,6.69A32,32,0,0,0,400.34,0Z"/><path class="cls-2" d="M324.68,306.92c-38.42-14.09-55.47-64-38.08-111.41S349.25,121,387.67,135.13a61.08,61.08,0,0,1,12.67,6.43V32.22L32,317.19H177.52L89.6,516.07l310.74-57.91V286.41C378.93,307.42,350.29,316.31,324.68,306.92Z"/><path class="cls-3" d="M470.18,169.27c-23-2-44.52,15.44-55.35,41.94,1.51-29.9-11.61-55.55-34.52-62.39-29.23-8.72-63.22,16.42-75.93,56.15s.68,79,29.91,87.73c27.5,8.21,59.22-13.58,73.45-49.29-2.19,39.69,18.86,73.26,48.34,75.83,30.47,2.66,58.32-28.75,62.22-70.17S500.65,171.93,470.18,169.27Z"/><circle class="cls-1" cx="461.93" cy="248.93" r="28.72"/><circle class="cls-1" cx="365.09" cy="233.68" r="28.72"/></g></g></svg>
