<svg xmlns="http://www.w3.org/2000/svg" viewBox="0 0 806.29 709.76"><defs><style>.cls-1{fill:#468038;}.cls-2{fill:#aaca42;}.cls-3{fill:#eaeaea;}</style></defs><title>Sticker_15</title><g id="Layer_2"><g id="Layer_17"><path class="cls-1" d="M796,274,615.46,416.84,649.9,668.13c3,22.17-20.76,38.13-40.12,26.89L387.27,565.87,172.38,705.36c-19.51,12.66-44.81-3.75-41.19-26.73l38.75-246.27L25.49,424.65c-23-1.24-33.91-29-17.88-45.54l359-370.92a26.88,26.88,0,0,1,39.84,1.33L582.86,218.14l197.59,8C805.37,227.09,815.61,258.56,796,274Z"/><path class="cls-2" d="M312,344.2C276,330,262.48,278.87,281.76,230s64.09-77,100.08-62.78a52.41,52.41,0,0,1,9.77,5.11v-113L65.25,386.57l153.85,4L177.39,647.66,391.61,512.74V316C369.3,342.37,338.32,354.57,312,344.2Z"/><path class="cls-3" d="M461.57,204.85c-23-2.21-44.66,15.05-55.72,41.45,1.77-29.89-11.12-55.65-34-62.7-29.15-9-63.37,15.85-76.43,55.47s0,79,29.13,88c27.43,8.45,59.34-13.06,73.89-48.64-2.55,39.67,18.2,73.42,47.66,76.26,30.44,2.93,58.58-28.23,62.84-69.61S492,207.79,461.57,204.85Z"/><circle class="cls-1" cx="452.6" cy="284.43" r="28.72"/><circle class="cls-1" cx="355.91" cy="268.32" r="28.72"/></g></g></svg>
