<svg xmlns="http://www.w3.org/2000/svg" viewBox="0 0 348.73 128.57"><defs><style>.cls-1{fill:#e0185f;}.cls-2{fill:#eeeded;}</style></defs><title>KC_Team-Sticker-Solo</title><g id="Layer_2"><g id="Layer_2-2"><g id="Layer_2-3"><g id="Layer_9"><rect class="cls-1" width="348.73" height="128.57" rx="11.49"/><rect class="cls-2" y="33.22" width="348.73" height="77.73"/></g><path class="cls-2" d="M142,5.12v8.8h-6.56V5.12h-6.56V27.38h6.56v-6.9H142a6.56,6.56,0,0,0,6.55-6.56V5.12Z"/><rect class="cls-2" x="150.66" y="5.12" width="13.49" height="5.88"/><rect class="cls-2" x="150.66" y="13.44" width="13.49" height="5.88"/><rect class="cls-2" x="150.66" y="21.49" width="13.49" height="5.88"/><polygon class="cls-2" points="183.79 5.15 176.42 5.12 183.41 20.15 181.22 20.15 174.25 5.15 166.89 5.12 173.87 20.15 166.4 20.15 166.4 27.38 190.75 27.38 190.75 20.15 183.79 5.15"/><path class="cls-2" d="M213.27,5.12v7.79a1.93,1.93,0,1,1-3.85,0H204a1.93,1.93,0,1,1-3.85,0V5.12h-6.57V27.38h6.57V20.72A5.75,5.75,0,0,0,202,21a5.22,5.22,0,0,0,4.45-2.33H207A5.24,5.24,0,0,0,211.44,21a5.8,5.8,0,0,0,1.83-.3v6.66h6.57V5.12Z"/></g></g></g></svg>
